<?xml version="1.0" encoding="utf-8"?>
<!-- Generator: Adobe Illustrator 21.0.2, SVG Export Plug-In . SVG Version: 6.00 Build 0)  -->
<svg version="1.1" id="Layer_1" xmlns="http://www.w3.org/2000/svg" xmlns:xlink="http://www.w3.org/1999/xlink" x="0px" y="0px"
	 viewBox="0 0 44.8 48" style="enable-background:new 0 0 44.8 48;" xml:space="preserve">
<style type="text/css">
	.st0{fill:#171F24;}
</style>
<title>steem-icon-typo copy</title>
<desc>Created with Sketch.</desc>
<g id="Page-1_1_">
	<g id="smts-copy" transform="translate(-24.000000, -20.000000)">
		<g id="steem-icon-typo-copy" transform="translate(24.000000, 20.000000)">
			<g id="Page-1">
				<path id="Fill-1" class="st0" d="M6.5,5.3C6.1,5.1,0.1,10,0.1,13.7c0,5,6.9,16.2,8.1,20.6c1,3.7-1.7,8.2-1,8.4
					c0.7,0.4,7.2-6.1,7.4-9c0.3-4.5-7.6-17.5-8.2-20.9C5.8,8.9,7.1,5.4,6.5,5.3L6.5,5.3z"/>
				<path id="Fill-2" class="st0" d="M21.4,0.2c-0.6-0.3-8.2,6-8.2,10.6c0,6.3,8.8,20.7,10.3,26.2c1.3,4.8-2.2,10.5-1.2,10.7
					c0.9,0.6,9.1-7.8,9.5-11.4c0.4-5.7-9.6-22.3-10.5-26.6C20.4,4.7,22.1,0.3,21.4,0.2L21.4,0.2z"/>
				<path id="Fill-3" class="st0" d="M36.7,5.3c-0.5-0.2-6.4,4.7-6.4,8.3c0,5,6.9,16.2,8.1,20.6c1,3.7-1.7,8.2-1,8.4
					c0.7,0.4,7.2-6.1,7.4-9c0.3-4.5-7.6-17.5-8.2-20.9C35.9,8.9,37.2,5.4,36.7,5.3L36.7,5.3z"/>
			</g>
		</g>
	</g>
</g>
</svg>
